<svg width="267" height="546" viewBox="0 0 267 546" fill="none" xmlns="http://www.w3.org/2000/svg">
<path d="M2 271C0.89543 271 0 271.895 0 273C0 274.105 0.89543 275 2 275V271ZM265.914 16.4142C266.695 15.6332 266.695 14.3668 265.914 13.5858L253.186 0.857864C252.405 0.0768156 251.139 0.0768156 250.358 0.857864C249.577 1.63891 249.577 2.90524 250.358 3.68629L261.672 15L250.358 26.3137C249.577 27.0948 249.577 28.3611 250.358 29.1421C251.139 29.9232 252.405 29.9232 253.186 29.1421L265.914 16.4142ZM2 273V275H109.5V273V271H2V273ZM133.5 249H135.5V39H133.5H131.5V249H133.5ZM157.5 15V17H264.5V15V13H157.5V15ZM133.5 39H135.5C135.5 26.8497 145.35 17 157.5 17V15V13C143.141 13 131.5 24.6406 131.5 39H133.5ZM109.5 273V275C123.859 275 135.5 263.359 135.5 249H133.5H131.5C131.5 261.15 121.65 271 109.5 271V273Z" fill="#166EC7"/>
<path d="M2 271C0.89543 271 0 271.895 0 273C0 274.105 0.89543 275 2 275V271ZM265.914 188.414C266.695 187.633 266.695 186.367 265.914 185.586L253.186 172.858C252.405 172.077 251.139 172.077 250.358 172.858C249.577 173.639 249.577 174.905 250.358 175.686L261.672 187L250.358 198.314C249.577 199.095 249.577 200.361 250.358 201.142C251.139 201.923 252.405 201.923 253.186 201.142L265.914 188.414ZM2 273V275H109.5V273V271H2V273ZM133.5 249H135.5V211H133.5H131.5V249H133.5ZM157.5 187V189H264.5V187V185H157.5V187ZM133.5 211H135.5C135.5 198.85 145.35 189 157.5 189V187V185C143.141 185 131.5 196.641 131.5 211H133.5ZM109.5 273V275C123.859 275 135.5 263.359 135.5 249H133.5H131.5C131.5 261.15 121.65 271 109.5 271V273Z" fill="#166EC7"/>
<path d="M2 271C0.89543 271 0 271.895 0 273C0 274.105 0.89543 275 2 275V271ZM265.914 360.414C266.695 359.633 266.695 358.367 265.914 357.586L253.186 344.858C252.405 344.077 251.139 344.077 250.358 344.858C249.577 345.639 249.577 346.905 250.358 347.686L261.672 359L250.358 370.314C249.577 371.095 249.577 372.361 250.358 373.142C251.139 373.923 252.405 373.923 253.186 373.142L265.914 360.414ZM2 273V275H109.5V273V271H2V273ZM133.5 297H131.5V335H133.5H135.5V297H133.5ZM157.5 359V361H264.5V359V357H157.5V359ZM133.5 335H131.5C131.5 349.359 143.141 361 157.5 361V359V357C145.35 357 135.5 347.15 135.5 335H133.5ZM109.5 273V275C121.65 275 131.5 284.85 131.5 297H133.5H135.5C135.5 282.641 123.859 271 109.5 271V273Z" fill="#166EC7"/>
<path d="M2 271C0.89543 271 0 271.895 0 273C0 274.105 0.89543 275 2 275V271ZM265.914 532.414C266.695 531.633 266.695 530.367 265.914 529.586L253.186 516.858C252.405 516.077 251.139 516.077 250.358 516.858C249.577 517.639 249.577 518.905 250.358 519.686L261.672 531L250.358 542.314C249.577 543.095 249.577 544.361 250.358 545.142C251.139 545.923 252.405 545.923 253.186 545.142L265.914 532.414ZM2 273V275H109.5V273V271H2V273ZM133.5 297H131.5V507H133.5H135.5V297H133.5ZM157.5 531V533H264.5V531V529H157.5V531ZM133.5 507H131.5C131.5 521.359 143.141 533 157.5 533V531V529C145.35 529 135.5 519.15 135.5 507H133.5ZM109.5 273V275C121.65 275 131.5 284.85 131.5 297H133.5H135.5C135.5 282.641 123.859 271 109.5 271V273Z" fill="#166EC7"/>
</svg>
