<svg width="31" height="57" viewBox="0 0 31 57" fill="none" xmlns="http://www.w3.org/2000/svg">
<path d="M17.5 2C17.5 0.895431 16.6046 0 15.5 0C14.3954 0 13.5 0.895431 13.5 2H17.5ZM14.0858 55.9142C14.8668 56.6953 16.1332 56.6953 16.9142 55.9142L29.6421 43.1863C30.4232 42.4052 30.4232 41.1389 29.6421 40.3579C28.8611 39.5768 27.5948 39.5768 26.8137 40.3579L15.5 51.6716L4.18629 40.3579C3.40524 39.5768 2.13891 39.5768 1.35786 40.3579C0.576816 41.1389 0.576816 42.4052 1.35786 43.1863L14.0858 55.9142ZM15.5 2H13.5V54.5H15.5H17.5V2H15.5Z" fill="#166EC7"/>
</svg>
