<svg width="550" height="109" viewBox="0 0 550 109" fill="none" xmlns="http://www.w3.org/2000/svg">
<path d="M549.5 2C549.5 0.895431 548.605 0 547.5 0C546.395 0 545.5 0.895431 545.5 2H549.5ZM13.4452 107.914C14.2262 108.695 15.4925 108.695 16.2736 107.914L29.0015 95.1863C29.7826 94.4052 29.7826 93.1389 29.0015 92.3579C28.2205 91.5768 26.9541 91.5768 26.1731 92.3579L14.8594 103.672L3.54567 92.3579C2.76462 91.5768 1.49829 91.5768 0.717239 92.3579C-0.0638092 93.1389 -0.0638092 94.4052 0.717239 95.1863L13.4452 107.914ZM547.5 2H545.5V30.5H547.5H549.5V2H547.5ZM523.5 54.5V52.5H38.8594V54.5V56.5H523.5V54.5ZM14.8594 78.5H12.8594V106.5H14.8594H16.8594V78.5H14.8594ZM38.8594 54.5V52.5C24.5 52.5 12.8594 64.1406 12.8594 78.5H14.8594H16.8594C16.8594 66.3497 26.7091 56.5 38.8594 56.5V54.5ZM547.5 30.5H545.5C545.5 42.6503 535.65 52.5 523.5 52.5V54.5V56.5C537.859 56.5 549.5 44.8594 549.5 30.5H547.5Z" fill="#166EC7"/>
</svg>
