<svg width="591" height="109" viewBox="0 0 591 109" fill="none" xmlns="http://www.w3.org/2000/svg">
<path d="M4.5 2C4.5 0.895431 3.60457 0 2.5 0C1.39543 0 0.5 0.895431 0.5 2H4.5ZM574.453 107.789C575.234 108.57 576.5 108.57 577.281 107.789L590.009 95.0613C590.79 94.2802 590.79 93.0139 590.009 92.2329C589.228 91.4518 587.962 91.4518 587.181 92.2329L575.867 103.547L564.553 92.2329C563.772 91.4518 562.506 91.4518 561.725 92.2329C560.944 93.0139 560.944 94.2802 561.725 95.0613L574.453 107.789ZM2.5 2H0.5V30.4375H2.5H4.5V2H2.5ZM26.5 54.4375V56.4375H551.867V54.4375V52.4375H26.5V54.4375ZM575.867 78.4375H573.867V106.375H575.867H577.867V78.4375H575.867ZM551.867 54.4375V56.4375C564.017 56.4375 573.867 66.2872 573.867 78.4375H575.867H577.867C577.867 64.0781 566.227 52.4375 551.867 52.4375V54.4375ZM2.5 30.4375H0.5C0.5 44.7969 12.1406 56.4375 26.5 56.4375V54.4375V52.4375C14.3497 52.4375 4.5 42.5878 4.5 30.4375H2.5Z" fill="#166EC7"/>
</svg>
