<svg width="130" height="358" viewBox="0 0 130 358" fill="none" xmlns="http://www.w3.org/2000/svg">
<g opacity="0.42">
<path d="M28 4.5C29.1046 4.5 30 3.60457 30 2.5C30 1.39543 29.1046 0.5 28 0.5V4.5ZM128.914 344.414C129.695 343.633 129.695 342.367 128.914 341.586L116.186 328.858C115.405 328.077 114.139 328.077 113.358 328.858C112.577 329.639 112.577 330.905 113.358 331.686L124.672 343L113.358 354.314C112.577 355.095 112.577 356.361 113.358 357.142C114.139 357.923 115.405 357.923 116.186 357.142L128.914 344.414ZM28 2.5V0.5H26V2.5V4.5H28V2.5ZM2 26.5H0V319H2H4V26.5H2ZM26 343V345H127.5V343V341H26V343ZM2 319H0C0 333.359 11.6406 345 26 345V343V341C13.8497 341 4 331.15 4 319H2ZM26 2.5V0.5C11.6406 0.5 0 12.1406 0 26.5H2H4C4 14.3497 13.8497 4.5 26 4.5V2.5Z" fill="white"/>
</g>
</svg>
